<svg xmlns="http://www.w3.org/2000/svg" width="200" height="200"><path fill="none" d="M0 0h200v200H0z"/><path d="M149.009.042L123.073 0C93.936 0 75.106 19.319 75.106 49.22v22.694H49.029a4.079 4.079 0 00-4.079 4.08v32.881a4.078 4.078 0 004.079 4.078h26.077v82.969A4.076 4.076 0 0079.184 200h34.023a4.078 4.078 0 004.078-4.078v-82.969h30.49a4.077 4.077 0 004.078-4.078l.012-32.881a4.083 4.083 0 00-4.08-4.08h-30.5V52.676c0-9.246 2.203-13.94 14.248-13.94l17.472-.006a4.078 4.078 0 004.076-4.079V4.12a4.08 4.08 0 00-4.072-4.078z"/></svg>