<svg xmlns="http://www.w3.org/2000/svg" width="200" height="200"><path fill="none" d="M0 0h200v200H0z"/><path d="M66.676 100c0-18.409 14.919-33.336 33.328-33.336 18.409 0 33.336 14.927 33.336 33.336s-14.927 33.336-33.336 33.336S66.676 118.409 66.676 100m-18.021 0c0 28.36 22.989 51.349 51.349 51.349 28.36 0 51.349-22.989 51.349-51.349 0-28.36-22.989-51.349-51.349-51.349-28.36 0-51.349 22.989-51.349 51.349m92.731-53.385c-.003 6.628 5.367 12.002 11.995 12.005 6.627.003 12.002-5.368 12.005-11.995.002-6.628-5.368-12.002-11.996-12.005h-.004c-6.625.003-11.995 5.371-12 11.995M59.604 181.398c-9.75-.444-15.049-2.068-18.57-3.44-4.669-1.818-8-3.983-11.503-7.48-3.502-3.498-5.67-6.826-7.48-11.495-1.373-3.52-2.997-8.821-3.44-18.57-.485-10.541-.581-13.707-.581-40.412s.104-29.863.581-40.412c.444-9.75 2.08-15.04 3.44-18.571 1.818-4.668 3.983-8 7.48-11.502 3.498-3.502 6.826-5.67 11.503-7.48 3.52-1.373 8.82-2.997 18.57-3.44 10.541-.485 13.707-.582 40.4-.582 26.693 0 29.862.105 40.412.582 9.75.444 15.04 2.08 18.57 3.44 4.669 1.81 8 3.982 11.503 7.48 3.502 3.498 5.662 6.834 7.48 11.502 1.373 3.52 2.997 8.821 3.44 18.571.485 10.549.581 13.707.581 40.412s-.096 29.862-.581 40.412c-.444 9.749-2.076 15.049-3.44 18.57-1.818 4.669-3.983 8-7.48 11.495-3.498 3.494-6.834 5.662-11.503 7.48-3.52 1.372-8.82 2.996-18.57 3.44-10.541.484-13.707.581-40.412.581s-29.862-.097-40.4-.581M58.776.606C48.13 1.09 40.856 2.778 34.503 5.25c-6.579 2.553-12.149 5.978-17.714 11.535-5.566 5.557-8.982 11.135-11.535 17.714C2.782 40.856 1.094 48.126.61 58.772.117 69.434.004 72.843.004 100c0 27.157.113 30.566.606 41.228.484 10.646 2.172 17.916 4.644 24.273 2.553 6.575 5.97 12.16 11.535 17.714 5.565 5.555 11.135 8.975 17.714 11.535 6.365 2.472 13.627 4.16 24.273 4.644 10.668.485 14.071.606 41.228.606 27.157 0 30.566-.113 41.228-.606 10.646-.484 17.916-2.172 24.273-4.644 6.575-2.56 12.149-5.978 17.714-11.535 5.566-5.557 8.975-11.139 11.535-17.714 2.472-6.357 4.168-13.627 4.644-24.273.485-10.67.598-14.071.598-41.228 0-27.157-.113-30.566-.598-41.228-.484-10.646-2.172-17.92-4.644-24.273-2.56-6.575-5.978-12.149-11.535-17.714-5.557-5.566-11.139-8.982-17.706-11.535-6.365-2.472-13.635-4.168-24.273-4.644C130.578.121 127.169 0 100.012 0 72.855 0 69.444.113 58.776.606"/></svg>