<svg data-name="Livello 1" xmlns="http://www.w3.org/2000/svg" viewBox="0 0 425.8 340.73"><path d="M212.77 340.74H45.15c-27 0-45.11-17.91-45.12-44.9q-.06-125.47 0-250.93c0-27 18-44.89 45.12-44.9h335.24c27.4 0 45.38 17.83 45.39 45.16V295.1c0 28-17.75 45.63-45.89 45.63zM383.04 82.52c-2.32 1.53-3.83 2.51-5.33 3.51q-80.28 53.52-160.5 107.12c-3.27 2.19-5.41 2.24-8.72 0Q128.3 139.46 47.9 86.02c-1.45-1-2.94-1.87-5-3.18v215h340.14zm-17.58-39.47H60.64c1.19.89 1.71 1.31 2.25 1.67q73.41 49 146.77 98c2.84 1.9 4.56 1.24 7-.38q37.23-25 74.58-49.78z"/></svg>